<svg width="25" height="26" viewBox="0 0 25 26" fill="none" xmlns="http://www.w3.org/2000/svg">
<path d="M14.0309 9.38538C13.8929 9.23728 13.8178 9.0414 13.8214 8.839C13.8249 8.6366 13.9069 8.44349 14.0501 8.30036C14.1932 8.15722 14.3863 8.07523 14.5887 8.07165C14.7911 8.06808 14.987 8.14321 15.1351 8.28121L19.3018 12.4479C19.4481 12.5944 19.5302 12.7929 19.5302 13C19.5302 13.207 19.4481 13.4056 19.3018 13.552L15.1351 17.7187C15.0636 17.7955 14.9773 17.857 14.8815 17.8997C14.7857 17.9424 14.6822 17.9654 14.5773 17.9672C14.4724 17.9691 14.3682 17.9498 14.2709 17.9105C14.1736 17.8712 14.0853 17.8127 14.0111 17.7385C13.9369 17.6644 13.8784 17.576 13.8391 17.4787C13.7998 17.3814 13.7805 17.2772 13.7824 17.1723C13.7842 17.0674 13.8072 16.964 13.8499 16.8682C13.8926 16.7723 13.9542 16.6861 14.0309 16.6145L16.8643 13.7812H6.77051C6.56331 13.7812 6.36459 13.6989 6.21808 13.5524C6.07157 13.4059 5.98926 13.2072 5.98926 13C5.98926 12.7928 6.07157 12.594 6.21808 12.4475C6.36459 12.301 6.56331 12.2187 6.77051 12.2187H16.8643L14.0309 9.38538Z" fill="white"/>
</svg>
