<svg width="33" height="33" viewBox="0 0 33 33" fill="none" xmlns="http://www.w3.org/2000/svg">
<path fill-rule="evenodd" clip-rule="evenodd" d="M16.5 32.2109C25.3366 32.2109 32.5 25.0475 32.5 16.2109C32.5 7.37438 25.3366 0.210938 16.5 0.210938C7.66344 0.210938 0.5 7.37438 0.5 16.2109C0.5 25.0475 7.66344 32.2109 16.5 32.2109ZM8.42857 9H25.5714C25.9503 9 26.3137 9.15051 26.5816 9.41842C26.8495 9.68633 27 10.0497 27 10.4286V21.8571C27 22.236 26.8495 22.5994 26.5816 22.8673C26.3137 23.1352 25.9503 23.2857 25.5714 23.2857H8.42857C8.04969 23.2857 7.68633 23.1352 7.41842 22.8673C7.15051 22.5994 7 22.236 7 21.8571V10.4286C7 10.0497 7.15051 9.68633 7.41842 9.41842C7.68633 9.15051 8.04969 9 8.42857 9ZM17 15.2714L24 10.4286H10L17 15.2714ZM8.42857 11.0786V21.8571H25.5714V11.0786L17.4071 16.7286C17.2876 16.8115 17.1455 16.856 17 16.856C16.8545 16.856 16.7124 16.8115 16.5929 16.7286L8.42857 11.0786Z" fill="#F5DDD5"/>
</svg>
