<svg width="33" height="33" fill="none" xmlns="http://www.w3.org/2000/svg"><g clip-path="url(#a)" fill="#F5DDD5"><path d="M18.647 16.535a2.133 2.133 0 1 1-2.08-2.174 2.16 2.16 0 0 1 2.08 2.174z"/><path d="M20.184 9.855h-7.233a2.699 2.699 0 0 0-2.699 2.699v7.396a2.7 2.7 0 0 0 2.699 2.698h7.233a2.7 2.7 0 0 0 2.699-2.698v-7.383a2.7 2.7 0 0 0-2.699-2.712zm-3.617 10.297a3.604 3.604 0 1 1 3.522-3.604 3.564 3.564 0 0 1-3.522 3.604zm3.914-7.206a.66.66 0 0 1-.661-.675.674.674 0 1 1 1.35 0 .662.662 0 0 1-.743.675h.054z"/><path d="M16.58.211a16 16 0 1 0-.16 32 16 16 0 0 0 .16-32zm9.717 20.323a5.425 5.425 0 0 1-5.456 5.458h-8.519a5.426 5.426 0 0 1-5.457-5.456v-8.52a5.424 5.424 0 0 1 5.456-5.458h8.52a5.424 5.424 0 0 1 5.456 5.456v8.52z"/></g><defs><clipPath id="a"><path fill="#fff" transform="translate(.5 .21)" d="M0 0h32v32H0z"/></clipPath></defs></svg>