<svg width="19" height="19" viewBox="0 0 19 19" fill="none" xmlns="http://www.w3.org/2000/svg">
<path d="M3.98741 2.50089C3.98714 3.03129 3.77684 3.53987 3.40276 3.91473C3.02868 4.2896 2.52147 4.50004 1.99271 4.49978C1.46394 4.49951 0.956943 4.28856 0.583238 3.91332C0.209533 3.53808 -0.000264132 3.02929 2.49573e-07 2.49889C0.000264631 1.96849 0.210569 1.45991 0.584648 1.08505C0.958727 0.710183 1.46594 0.499735 1.9947 0.5C2.52346 0.500265 3.03047 0.711222 3.40417 1.08646C3.77788 1.4617 3.98767 1.97049 3.98741 2.50089ZM4.04722 5.9807H0.0598113V18.5H4.04722V5.9807ZM10.3473 5.9807H6.37985V18.5H10.3075V11.9304C10.3075 8.27057 15.0624 7.93059 15.0624 11.9304V18.5H19V10.5704C19 4.40078 11.9622 4.63077 10.3075 7.6606L10.3473 5.9807Z" fill="#342840"/>
</svg>
