<svg width="21" height="21" fill="none" xmlns="http://www.w3.org/2000/svg"><path d="M17.501 3.258A9.869 9.869 0 0 0 10.456.333c-5.487 0-9.96 4.472-9.96 9.96 0 1.759.463 3.467 1.327 4.975L.416 20.434l5.276-1.387a9.962 9.962 0 0 0 4.764 1.216c5.488 0 9.96-4.473 9.96-9.96a9.897 9.897 0 0 0-2.915-7.045zm-7.045 15.316a8.303 8.303 0 0 1-4.22-1.155l-.302-.181-3.136.824.834-3.056-.2-.311a8.302 8.302 0 0 1-1.267-4.402c0-4.563 3.718-8.282 8.281-8.282 2.211 0 4.292.865 5.85 2.433a8.221 8.221 0 0 1 2.422 5.859c.02 4.563-3.699 8.271-8.262 8.271zM15 12.384c-.251-.121-1.478-.724-1.699-.815-.23-.08-.392-.12-.562.12-.171.252-.644.815-.784.976-.141.17-.292.19-.543.06-.251-.12-1.055-.392-2-1.236-.744-.664-1.236-1.478-1.387-1.729-.14-.251-.02-.382.11-.512.111-.11.252-.292.372-.433.121-.14.171-.25.252-.412.08-.17.04-.311-.02-.432-.06-.12-.563-1.346-.764-1.849-.201-.482-.412-.422-.563-.432h-.482c-.171 0-.433.06-.664.311-.22.252-.864.855-.864 2.08 0 1.227.894 2.413 1.015 2.574.12.17 1.759 2.683 4.251 3.759.593.26 1.056.412 1.417.522.593.191 1.136.16 1.568.1.483-.07 1.478-.602 1.679-1.185.21-.583.21-1.076.14-1.186-.07-.11-.22-.161-.472-.282z" fill="#F8F8F8"/></svg>