<svg width="33" height="33" viewBox="0 0 33 33" fill="none" xmlns="http://www.w3.org/2000/svg">
<g clip-path="url(#clip0_2066_11)">
<path d="M18.6471 16.5348C18.6391 16.9572 18.5058 17.3677 18.2642 17.7142C18.0226 18.0608 17.6835 18.3278 17.29 18.4814C16.8965 18.6351 16.4662 18.6684 16.0537 18.5772C15.6412 18.486 15.2651 18.2744 14.973 17.9692C14.6809 17.664 14.486 17.279 14.413 16.8629C14.34 16.4467 14.3921 16.0183 14.5629 15.6319C14.7336 15.2455 15.0153 14.9185 15.3721 14.6923C15.7289 14.4662 16.1448 14.351 16.5671 14.3615C17.1283 14.3823 17.6594 14.6208 18.0477 15.0265C18.436 15.4323 18.651 15.9733 18.6471 16.5348Z" fill="#F5DDD5"/>
<path d="M20.184 9.85498H12.9506C12.2349 9.85498 11.5485 10.1393 11.0424 10.6454C10.5363 11.1515 10.252 11.8379 10.252 12.5536V19.9496C10.252 20.304 10.3218 20.655 10.4574 20.9824C10.593 21.3098 10.7918 21.6073 11.0424 21.8579C11.293 22.1085 11.5905 22.3073 11.9179 22.4429C12.2453 22.5785 12.5962 22.6483 12.9506 22.6483H20.184C20.5383 22.6483 20.8893 22.5785 21.2167 22.4429C21.5441 22.3073 21.8416 22.1085 22.0922 21.8579C22.3428 21.6073 22.5416 21.3098 22.6772 20.9824C22.8128 20.655 22.8826 20.304 22.8826 19.9496V12.567C22.884 12.2116 22.8153 11.8594 22.6803 11.5306C22.5454 11.2018 22.3468 10.9028 22.0961 10.6509C21.8454 10.399 21.5475 10.199 21.2194 10.0624C20.8912 9.92581 20.5394 9.85533 20.184 9.85498ZM16.5666 20.1523C15.8506 20.1685 15.1459 19.9709 14.5427 19.5849C13.9394 19.1988 13.4648 18.6418 13.1795 17.9848C12.8942 17.3278 12.8112 16.6008 12.9409 15.8964C13.0706 15.192 13.4073 14.5423 13.908 14.0301C14.4086 13.5179 15.0505 13.1665 15.7517 13.0207C16.453 12.8749 17.1817 12.9414 17.845 13.2116C18.5083 13.4818 19.0761 13.9435 19.4758 14.5378C19.8755 15.1322 20.0891 15.8321 20.0893 16.5483C20.0947 17.0163 20.0079 17.4808 19.8338 17.9152C19.6597 18.3496 19.4018 18.7455 19.0746 19.0801C18.7475 19.4148 18.3576 19.6818 17.9273 19.8657C17.497 20.0497 17.0346 20.1471 16.5666 20.1523ZM20.4813 12.9456C20.3933 12.9457 20.3062 12.9281 20.2251 12.8941C20.144 12.86 20.0705 12.8101 20.0089 12.7473C19.9473 12.6844 19.8989 12.6099 19.8664 12.5282C19.834 12.4464 19.8182 12.3589 19.82 12.271C19.82 12.092 19.891 11.9204 20.0176 11.7939C20.1441 11.6674 20.3157 11.5963 20.4946 11.5963C20.6736 11.5963 20.8452 11.6674 20.9717 11.7939C21.0982 11.9204 21.1693 12.092 21.1693 12.271C21.1719 12.3662 21.154 12.4609 21.1166 12.5486C21.0793 12.6362 21.0234 12.7148 20.9529 12.7789C20.8824 12.8429 20.7988 12.891 20.708 12.9198C20.6172 12.9486 20.5212 12.9574 20.4266 12.9456H20.4813Z" fill="#F5DDD5"/>
<path d="M16.58 0.211138C12.3366 0.189921 8.25855 1.85526 5.243 4.8408C2.22745 7.82634 0.521417 11.8875 0.5002 16.1309C0.478983 20.3743 2.14432 24.4524 5.12986 27.4679C8.11541 30.4835 12.1766 32.1895 16.42 32.2107C18.5211 32.2212 20.6037 31.8178 22.5489 31.0234C24.4942 30.2291 26.2639 29.0594 27.757 27.5811C29.2501 26.1028 30.4375 24.3449 31.2513 22.4077C32.065 20.4705 32.4893 18.3921 32.4998 16.2909C32.5103 14.1898 32.1069 12.1072 31.3125 10.162C30.5181 8.21678 29.3484 6.44709 27.8701 4.95394C26.3918 3.46079 24.6339 2.27344 22.6968 1.45966C20.7596 0.645893 18.6811 0.221643 16.58 0.211138ZM26.2967 20.5341C26.3011 21.2519 26.1631 21.9634 25.8905 22.6275C25.6179 23.2915 25.2162 23.8949 24.7087 24.4025C24.2012 24.9102 23.598 25.312 22.934 25.5848C22.2701 25.8576 21.5586 25.9959 20.8407 25.9916H12.3225C11.6048 25.9956 10.8934 25.8573 10.2296 25.5845C9.5657 25.3118 8.96254 24.9101 8.45498 24.4027C7.94741 23.8953 7.54554 23.2922 7.2726 22.6285C6.99967 21.9647 6.8611 21.2534 6.86492 20.5357V12.0158C6.86046 11.298 6.99853 10.5864 7.27111 9.92239C7.5437 9.25834 7.94539 8.65501 8.45289 8.14736C8.96039 7.63971 9.5636 7.23785 10.2276 6.96507C10.8915 6.69228 11.603 6.55401 12.3209 6.55826H20.8407C21.5584 6.55401 22.2698 6.69224 22.9337 6.96492C23.5975 7.2376 24.2007 7.63932 24.7081 8.1468C25.2156 8.65428 25.6173 9.25742 25.89 9.92128C26.1627 10.5851 26.3009 11.2965 26.2967 12.0142V20.5341Z" fill="#F5DDD5"/>
</g>
<defs>
<clipPath id="clip0_2066_11">
<rect width="32" height="32" fill="white" transform="translate(0.5 0.210938)"/>
</clipPath>
</defs>
</svg>
