<svg width="33" height="33" fill="none" xmlns="http://www.w3.org/2000/svg"><g clip-path="url(#a)"><path d="M16.5.85C8.016.85 1.14 7.729 1.14 16.21c0 8.484 6.876 15.36 15.36 15.36 8.483 0 15.36-6.876 15.36-15.36C31.86 7.729 24.983.85 16.5.85zm-3.76 21.727H9.63v-10.01h3.11v10.01zM11.165 11.34c-.982 0-1.617-.696-1.617-1.557 0-.878.654-1.554 1.657-1.554 1.003 0 1.618.676 1.637 1.554 0 .86-.634 1.557-1.677 1.557zM24.1 22.577h-3.11V17.03c0-1.291-.452-2.168-1.577-2.168-.859 0-1.37.594-1.595 1.165-.083.203-.104.491-.104.777v5.772h-3.112V15.76c0-1.25-.04-2.295-.082-3.194h2.703l.142 1.39h.063c.41-.652 1.412-1.616 3.09-1.616 2.047 0 3.582 1.372 3.582 4.319v5.918z" fill="#F5DDD5"/></g><defs><clipPath id="a"><path fill="#fff" transform="translate(.5 .21)" d="M0 0h32v32H0z"/></clipPath></defs></svg>