<svg version="1.1" id="Layer_1" xmlns="http://www.w3.org/2000/svg" xmlns:xlink="http://www.w3.org/1999/xlink" x="0px" y="0px"
	 width="100%" viewBox="0 0 600 225" enable-background="new 0 0 600 225" xml:space="preserve">
<path fill="transparent" opacity="1.000000" stroke="none" 
	d="
M501.000000,1.000003 
	C518.020874,1.000000 535.041809,1.000000 552.606323,1.463424 
	C553.150024,61.033314 553.150024,120.139778 553.150024,180.000000 
	C569.440613,180.000000 585.220337,180.000000 601.000000,180.000000 
	C601.000000,187.020950 601.000000,194.041901 600.682129,201.767273 
	C596.164124,196.101364 589.948303,196.141312 583.461426,197.233521 
	C568.495300,199.753433 553.743835,198.730087 539.196594,194.568527 
	C517.024658,188.225723 498.837524,175.287079 482.560303,159.514999 
	C473.730530,150.959213 465.802002,141.480545 457.128815,132.754257 
	C445.337250,120.890549 431.495056,119.899963 418.077850,129.770142 
	C414.628937,132.307297 411.644623,135.495529 408.550690,138.491837 
	C401.867706,144.964005 395.997253,152.570908 388.477844,157.831787 
	C358.233978,178.991608 324.291931,184.867111 288.266998,179.285797 
	C259.940155,174.897125 235.927048,161.892883 215.777374,141.429565 
	C200.375351,125.787811 186.111359,124.335670 167.413345,136.032700 
	C162.364471,139.191147 157.320175,142.598328 153.027908,146.683685 
	C132.843628,165.895004 108.836655,177.480942 81.908279,183.709564 
	C59.456615,188.902695 36.692711,190.618042 13.734415,190.808609 
	C9.486607,190.843872 5.244656,191.584778 1.000000,192.000000 
	C1.000000,128.398453 1.000000,64.796906 1.000000,1.000000 
	C79.687454,1.000000 158.375061,1.000000 237.862747,1.255753 
	C231.388275,9.661448 224.600632,18.317627 216.749680,25.868216 
	C191.277786,50.365578 160.544785,59.477337 125.704269,55.475376 
	C98.236603,52.320293 73.620346,41.549141 50.343445,27.162905 
	C48.830864,26.228058 46.566910,26.508932 44.652473,26.224293 
	C44.860149,28.171690 44.379131,30.619539 45.376987,31.992735 
	C66.175560,60.614590 94.185349,76.626152 129.634888,78.266136 
	C168.318481,80.055740 201.986542,66.741020 231.537888,42.281403 
	C236.215042,38.410118 240.607697,34.195110 244.257690,30.922779 
	C257.305267,40.072346 269.387543,49.511650 282.379364,57.465317 
	C314.933380,77.395058 350.157562,88.262009 388.690979,84.267876 
	C420.694489,80.950592 449.954407,70.885178 472.407837,46.089645 
	C476.283112,41.810131 480.810272,37.992039 485.510132,34.621490 
	C491.100403,30.612360 495.213501,30.895031 500.435852,35.414555 
	C504.560181,38.983829 508.154175,43.171799 511.932220,47.134064 
	C518.751831,54.286228 525.522339,61.458035 536.557129,61.325794 
	C543.447693,61.243217 547.176880,58.345509 548.527344,51.830750 
	C549.620911,46.555260 546.431641,42.467445 540.815125,39.462566 
	C535.814697,36.787357 531.073364,33.279003 526.995178,29.334511 
	C523.467896,25.922779 521.027039,21.385929 518.116211,17.339064 
	C513.718506,11.225143 509.176453,5.289773 501.633118,2.687353 
	C501.271118,2.562471 501.204285,1.582027 501.000000,1.000003 
z"/>
<path fill="#010101" opacity="1.000000" stroke="none" 
	d="
M542.000000,226.000000 
	C361.666656,226.000000 181.333328,226.000000 1.000000,226.000000 
	C1.000000,217.591156 1.000000,209.264252 1.284682,200.123138 
	C3.882780,200.151123 6.137433,201.248993 8.518628,201.796280 
	C34.553116,207.779953 60.783607,208.568817 87.037445,203.724350 
	C106.878807,200.063126 126.197014,194.453857 143.509415,183.680420 
	C153.094315,177.715775 162.095795,170.821350 171.562973,164.657379 
	C179.816879,159.283340 188.843506,158.184387 197.536209,163.148438 
	C206.878937,168.483673 215.957611,174.361832 224.725388,180.601791 
	C234.366867,187.463531 243.970718,194.099518 255.270233,198.146347 
	C284.763306,208.709091 314.848724,210.843811 345.442322,204.687347 
	C366.835632,200.382278 386.806732,192.769531 403.680756,178.135315 
	C410.666595,172.076721 418.303833,166.604507 426.228729,161.836090 
	C435.643219,156.171371 445.206970,156.188873 453.588135,164.537094 
	C456.058197,166.997452 458.619171,169.374695 460.974487,171.940536 
	C467.597870,179.155807 473.502075,187.176880 480.834839,193.566101 
	C497.981659,208.506592 517.737671,218.876175 540.034363,224.103790 
	C540.795898,224.282349 541.349487,225.347885 542.000000,226.000000 
z"/>
<path fill="#342840" opacity="1.000000" stroke="none" 
	d="
M542.468628,226.000000 
	C541.349487,225.347885 540.795898,224.282349 540.034363,224.103790 
	C517.737671,218.876175 497.981659,208.506592 480.834839,193.566101 
	C473.502075,187.176880 467.597870,179.155807 460.974487,171.940536 
	C458.619171,169.374695 456.058197,166.997452 453.588135,164.537094 
	C445.206970,156.188873 435.643219,156.171371 426.228729,161.836090 
	C418.303833,166.604507 410.666595,172.076721 403.680756,178.135315 
	C386.806732,192.769531 366.835632,200.382278 345.442322,204.687347 
	C314.848724,210.843811 284.763306,208.709091 255.270233,198.146347 
	C243.970718,194.099518 234.366867,187.463531 224.725388,180.601791 
	C215.957611,174.361832 206.878937,168.483673 197.536209,163.148438 
	C188.843506,158.184387 179.816879,159.283340 171.562973,164.657379 
	C162.095795,170.821350 153.094315,177.715775 143.509415,183.680420 
	C126.197014,194.453857 106.878807,200.063126 87.037445,203.724350 
	C60.783607,208.568817 34.553116,207.779953 8.518628,201.796280 
	C6.137433,201.248993 3.882780,200.151123 1.284682,199.654465 
	C1.000000,197.629440 1.000000,195.258896 1.000000,192.444183 
	C5.244656,191.584778 9.486607,190.843872 13.734415,190.808609 
	C36.692711,190.618042 59.456615,188.902695 81.908279,183.709564 
	C108.836655,177.480942 132.843628,165.895004 153.027908,146.683685 
	C157.320175,142.598328 162.364471,139.191147 167.413345,136.032700 
	C186.111359,124.335670 200.375351,125.787811 215.777374,141.429565 
	C235.927048,161.892883 259.940155,174.897125 288.266998,179.285797 
	C324.291931,184.867111 358.233978,178.991608 388.477844,157.831787 
	C395.997253,152.570908 401.867706,144.964005 408.550690,138.491837 
	C411.644623,135.495529 414.628937,132.307297 418.077850,129.770142 
	C431.495056,119.899963 445.337250,120.890549 457.128815,132.754257 
	C465.802002,141.480545 473.730530,150.959213 482.560303,159.514999 
	C498.837524,175.287079 517.024658,188.225723 539.196594,194.568527 
	C553.743835,198.730087 568.495300,199.753433 583.461426,197.233521 
	C589.948303,196.141312 596.164124,196.101364 600.682129,202.235840 
	C601.000000,206.024551 601.000000,210.049088 600.712402,214.255951 
	C595.554810,220.426102 588.373108,221.787155 581.569702,223.957016 
	C580.595093,224.267853 579.850891,225.301086 579.000000,226.000015 
	C566.979126,226.000000 554.958191,226.000000 542.468628,226.000000 
z"/>
<path fill="#342840" opacity="1.000000" stroke="none" 
	d="
M500.533875,1.000003 
	C501.204285,1.582027 501.271118,2.562471 501.633118,2.687353 
	C509.176453,5.289773 513.718506,11.225143 518.116211,17.339064 
	C521.027039,21.385929 523.467896,25.922779 526.995178,29.334511 
	C531.073364,33.279003 535.814697,36.787357 540.815125,39.462566 
	C546.431641,42.467445 549.620911,46.555260 548.527344,51.830750 
	C547.176880,58.345509 543.447693,61.243217 536.557129,61.325794 
	C525.522339,61.458035 518.751831,54.286228 511.932220,47.134064 
	C508.154175,43.171799 504.560181,38.983829 500.435852,35.414555 
	C495.213501,30.895031 491.100403,30.612360 485.510132,34.621490 
	C480.810272,37.992039 476.283112,41.810131 472.407837,46.089645 
	C449.954407,70.885178 420.694489,80.950592 388.690979,84.267876 
	C350.157562,88.262009 314.933380,77.395058 282.379364,57.465317 
	C269.387543,49.511650 257.305267,40.072346 244.257690,30.922779 
	C240.607697,34.195110 236.215042,38.410118 231.537888,42.281403 
	C201.986542,66.741020 168.318481,80.055740 129.634888,78.266136 
	C94.185349,76.626152 66.175560,60.614590 45.376987,31.992735 
	C44.379131,30.619539 44.860149,28.171690 44.652473,26.224293 
	C46.566910,26.508932 48.830864,26.228058 50.343445,27.162905 
	C73.620346,41.549141 98.236603,52.320293 125.704269,55.475376 
	C160.544785,59.477337 191.277786,50.365578 216.749680,25.868216 
	C224.600632,18.317627 231.388275,9.661448 238.331406,1.255753 
	C241.692902,1.000000 245.385818,1.000000 249.208618,1.255067 
	C267.798126,19.442463 288.197357,34.591717 311.851807,45.067871 
	C332.510864,54.217403 354.120880,59.158436 376.715179,57.791874 
	C408.673798,55.858940 436.258392,42.915371 460.690094,22.641708 
	C469.077911,15.681417 477.689209,8.990535 486.166107,2.136629 
	C486.317871,2.013937 486.064392,1.390033 486.000000,1.000000 
	C490.689240,1.000000 495.378510,1.000000 500.533875,1.000003 
z"/>
<path fill="transparent" opacity="1.000000" stroke="none" 
	d="
M485.531342,1.000000 
	C486.064392,1.390033 486.317871,2.013937 486.166107,2.136629 
	C477.689209,8.990535 469.077911,15.681417 460.690094,22.641708 
	C436.258392,42.915371 408.673798,55.858940 376.715179,57.791874 
	C354.120880,59.158436 332.510864,54.217403 311.851807,45.067871 
	C288.197357,34.591717 267.798126,19.442463 249.669250,1.255067 
	C328.354218,1.000000 406.708466,1.000000 485.531342,1.000000 
z"/>
<path fill="#342840" opacity="1.000000" stroke="none" 
	d="
M601.000000,179.531342 
	C585.220337,180.000000 569.440613,180.000000 553.150024,180.000000 
	C553.150024,120.139778 553.150024,61.033314 553.075012,1.463424 
	C568.969116,1.000000 584.938232,1.000000 601.000000,1.000000 
	C601.000000,60.354198 601.000000,119.708443 601.000000,179.531342 
z"/>
<path fill="transparent" opacity="1.000000" stroke="none" 
	d="
M579.468750,226.000015 
	C579.850891,225.301086 580.595093,224.267853 581.569702,223.957016 
	C588.373108,221.787155 595.554810,220.426102 600.712402,214.719147 
	C601.000000,218.617294 601.000000,222.234604 601.000000,226.000000 
	C593.979675,226.000000 586.958618,226.000000 579.468750,226.000015 
z"/>
</svg>