<svg width="666" height="977" viewBox="0 0 666 977" fill="none" xmlns="http://www.w3.org/2000/svg">
<path d="M229.791 834.426C224.287 832.839 218.676 831.62 212.976 831.047C198.769 829.622 185.405 823.339 175.222 813.156L128.344 766.278C124.786 762.719 120.125 760.936 115.464 760.936C111.341 760.936 107.209 762.334 103.847 765.131L123.558 784.958C128.775 790.202 128.568 798.735 123.11 803.727L118.485 807.949L157.538 847.002L77.4682 787.629C74.6982 785.576 72.7262 782.619 71.8842 779.266L67.6172 762.2L54.8622 711.172C54.0282 707.855 52.1282 705.032 49.5742 703.042C47.0192 701.052 43.8192 699.887 40.3962 699.887C38.1642 699.887 36.0762 700.362 34.2022 701.232C33.9332 701.348 33.6732 701.474 33.4132 701.617L38.5402 718.889C40.5572 725.674 36.7652 732.827 30.0162 734.978L29.7832 735.05L39.7142 777.993C40.2522 780.297 40.9062 782.573 41.6772 784.796C45.0472 794.539 50.6222 803.404 58.0172 810.682L118.511 870.235C124.821 876.438 131.947 881.753 139.691 886.028L188.227 912.801C198.732 918.6 206.476 928.379 209.721 939.933L219.85 976.047H303.756L304.455 935.551C304.464 934.95 304.473 934.35 304.473 933.749C304.473 887.776 274.079 847.226 229.791 834.426Z" fill="#F8D0B7"/>
<path d="M102.583 792.047L118.484 807.948L123.109 803.726C128.567 798.733 128.774 790.2 123.557 784.957L103.846 765.13C103.416 765.489 102.986 765.874 102.582 766.277C101.094 767.765 99.9198 769.441 99.0588 771.234C95.7798 778.02 96.9538 786.418 102.583 792.047Z" fill="#FCECE0"/>
<path d="M25.8752 718.154L29.7832 735.05L30.0162 734.978C36.7652 732.827 40.5572 725.674 38.5402 718.889L33.4132 701.617C27.6942 704.646 24.2882 711.287 25.8752 718.154Z" fill="#FCECE0"/>
<path d="M77.4672 787.628L157.537 847.001L118.484 807.948L102.583 792.047C96.9542 786.418 95.7802 778.019 99.0602 771.234L67.6172 762.199L71.8842 779.265C72.7262 782.618 74.6982 785.576 77.4672 787.628Z" fill="#E7B291"/>
<path d="M29.7817 735.049L25.8737 718.153C24.2867 711.287 27.6927 704.645 33.4117 701.616C33.6717 701.473 33.9317 701.347 34.2007 701.231L29.9787 689.758C27.1827 682.157 18.8377 678.186 11.1737 680.795L10.1077 681.162C9.15772 681.485 8.25272 681.897 7.41872 682.381L13.7107 698.954C16.2477 705.641 12.9217 713.116 6.26172 715.698L26.5097 773.61C28.0247 777.948 31.4577 781.345 35.8137 782.815L41.6757 784.796C40.9047 782.573 40.2507 780.296 39.7127 777.993L29.7817 735.049Z" fill="#E7B291"/>
<path d="M13.7108 698.954L7.41881 682.381C1.35981 685.895 -1.5622 693.325 0.839804 700.191L6.2628 715.698C12.9218 713.116 16.2478 705.641 13.7108 698.954Z" fill="#FBDFCB"/>
<path d="M436.171 834.426C441.675 832.839 447.286 831.62 452.986 831.047C467.193 829.622 480.557 823.339 490.74 813.156L537.618 766.278C541.176 762.719 545.837 760.936 550.498 760.936C554.621 760.936 558.753 762.334 562.115 765.131L542.404 784.958C537.187 790.202 537.394 798.735 542.852 803.727L547.477 807.949L508.424 847.002L588.494 787.629C591.264 785.576 593.236 782.619 594.078 779.266L598.345 762.2L611.1 711.172C611.933 707.855 613.834 705.032 616.388 703.042C618.943 701.052 622.142 699.887 625.566 699.887C627.798 699.887 629.886 700.362 631.76 701.232C632.029 701.348 632.289 701.474 632.549 701.617L627.422 718.889C625.405 725.674 629.197 732.827 635.946 734.978L636.179 735.05L626.248 777.993C625.71 780.297 625.056 782.573 624.285 784.796C620.915 794.539 615.34 803.404 607.945 810.682L547.451 870.235C541.141 876.438 534.015 881.753 526.271 886.028L477.735 912.801C467.23 918.6 459.486 928.379 456.241 939.933L446.112 976.047H362.206L361.507 935.551C361.498 934.95 361.489 934.35 361.489 933.749C361.489 887.776 391.883 847.226 436.171 834.426Z" fill="#F8D0B7"/>
<path d="M563.379 792.047L547.478 807.948L542.853 803.726C537.395 798.733 537.188 790.2 542.405 784.957L562.116 765.13C562.546 765.489 562.976 765.874 563.38 766.277C564.868 767.765 566.042 769.441 566.903 771.234C570.182 778.02 569.008 786.418 563.379 792.047Z" fill="#FCECE0"/>
<path d="M588.494 787.628L508.424 847.001L547.477 807.948L563.379 792.047C569.008 786.418 570.182 778.019 566.902 771.234L598.345 762.199L594.078 779.265C593.236 782.618 591.264 785.576 588.494 787.628Z" fill="#E7B291"/>
<path d="M636.179 735.049L640.087 718.153C641.673 711.287 638.267 704.645 632.549 701.616C632.289 701.473 632.029 701.347 631.76 701.231L635.982 689.758C638.778 682.157 647.123 678.186 654.787 680.795L655.854 681.162C656.804 681.485 657.709 681.897 658.543 682.381L652.251 698.954C649.714 705.641 653.04 713.116 659.7 715.698L639.452 773.61C637.937 777.948 634.504 781.345 630.148 782.815L624.286 784.796C625.057 782.573 625.711 780.296 626.249 777.993L636.179 735.049Z" fill="#E7B291"/>
<path d="M652.251 698.954L658.543 682.381C664.602 685.895 667.524 693.325 665.122 700.191L659.699 715.698C653.039 713.116 649.714 705.641 652.251 698.954Z" fill="#FBDFCB"/>
<path d="M299.348 793.697C299.419 794.988 299.591 796.338 299.836 797.748C300.091 799.116 300.458 800.528 300.917 801.917C301.377 803.306 301.968 804.655 302.675 805.952C304.049 808.537 305.95 810.841 308.175 812.721C310.415 814.613 312.981 816.109 315.754 817.083C318.541 818.07 321.508 818.539 324.305 818.646C325.729 818.683 327.091 818.646 328.351 818.523C329.601 818.442 330.847 818.186 331.834 818.036C332.781 817.903 333.686 817.613 334.244 817.504C334.838 817.352 335.164 817.225 335.164 817.225L299.671 786.714C299.671 786.714 299.598 787.073 299.521 787.675C299.495 788.246 299.318 789.21 299.344 790.167C299.32 791.184 299.267 792.447 299.348 793.697Z" fill="#405919"/>
<path d="M299.67 786.714L335.163 817.225C335.163 817.225 335.236 816.866 335.301 816.278C335.327 815.708 335.491 814.758 335.466 813.8C335.477 812.798 335.53 811.535 335.437 810.3C335.353 809.023 335.194 807.659 334.936 806.264C334.412 803.515 333.497 800.642 332.096 798.06C330.734 795.46 328.86 793.154 326.657 791.218C324.441 789.296 321.899 787.772 319.127 786.797C317.739 786.296 316.323 785.92 314.879 785.668C313.434 785.416 312 785.272 310.589 785.219C309.165 785.182 307.805 785.246 306.531 785.356C305.269 785.452 304.022 785.708 303.024 785.873C302.077 786.006 301.16 786.311 300.59 786.434C300.011 786.6 299.67 786.714 299.67 786.714Z" fill="#537322"/>
<path d="M163.897 680.004C163.184 680.043 162.44 680.138 161.662 680.273C160.907 680.414 160.128 680.616 159.362 680.87C158.595 681.124 157.851 681.45 157.135 681.84C155.709 682.598 154.437 683.647 153.4 684.875C152.356 686.111 151.531 687.527 150.993 689.057C150.448 690.595 150.19 692.232 150.131 693.776C150.11 694.562 150.131 695.313 150.199 696.008C150.244 696.698 150.385 697.386 150.468 697.93C150.541 698.453 150.702 698.952 150.762 699.26C150.846 699.588 150.916 699.767 150.916 699.767L167.753 680.181C167.753 680.181 167.555 680.141 167.222 680.098C166.907 680.084 166.375 679.986 165.847 680C165.284 679.989 164.587 679.959 163.897 680.004Z" fill="#405919"/>
<path d="M167.751 680.182L150.914 699.768C150.914 699.768 151.112 699.809 151.436 699.844C151.751 699.858 152.275 699.949 152.803 699.935C153.356 699.941 154.053 699.97 154.735 699.919C155.439 699.873 156.192 699.785 156.962 699.643C158.479 699.354 160.064 698.849 161.489 698.076C162.924 697.325 164.196 696.29 165.265 695.074C166.325 693.852 167.167 692.449 167.705 690.919C167.981 690.153 168.189 689.372 168.328 688.575C168.467 687.778 168.547 686.986 168.576 686.207C168.597 685.421 168.561 684.671 168.5 683.968C168.447 683.272 168.306 682.584 168.215 682.033C168.142 681.51 167.973 681.004 167.905 680.69C167.814 680.37 167.751 680.182 167.751 680.182Z" fill="#537322"/>
<path d="M395.445 759.557C394.732 759.596 393.988 759.691 393.21 759.827C392.455 759.968 391.676 760.17 390.91 760.424C390.143 760.678 389.399 761.004 388.683 761.394C387.257 762.152 385.985 763.201 384.948 764.429C383.904 765.665 383.079 767.081 382.541 768.611C381.997 770.149 381.738 771.786 381.679 773.33C381.658 774.116 381.679 774.867 381.747 775.562C381.792 776.252 381.933 776.94 382.016 777.484C382.089 778.007 382.25 778.506 382.309 778.814C382.393 779.142 382.463 779.322 382.463 779.322L399.3 759.736C399.3 759.736 399.102 759.696 398.77 759.653C398.455 759.639 397.923 759.541 397.395 759.555C396.831 759.542 396.135 759.513 395.445 759.557Z" fill="#405919"/>
<path d="M399.298 759.735L382.461 779.321C382.461 779.321 382.659 779.361 382.983 779.397C383.298 779.411 383.822 779.502 384.35 779.488C384.903 779.494 385.6 779.523 386.281 779.472C386.986 779.426 387.738 779.338 388.508 779.196C390.025 778.907 391.61 778.402 393.035 777.629C394.47 776.878 395.742 775.843 396.811 774.627C397.871 773.404 398.713 772.002 399.251 770.472C399.527 769.706 399.735 768.925 399.874 768.128C400.013 767.331 400.093 766.539 400.121 765.761C400.142 764.975 400.106 764.225 400.045 763.522C399.992 762.825 399.851 762.138 399.76 761.587C399.687 761.064 399.518 760.558 399.45 760.244C399.361 759.923 399.298 759.735 399.298 759.735Z" fill="#537322"/>
<path d="M460.059 722.564C460.098 723.277 460.193 724.021 460.328 724.799C460.469 725.554 460.671 726.333 460.925 727.099C461.179 727.865 461.505 728.61 461.895 729.326C462.653 730.752 463.702 732.024 464.93 733.061C466.166 734.105 467.582 734.93 469.112 735.468C470.65 736.013 472.287 736.271 473.831 736.33C474.617 736.351 475.368 736.33 476.063 736.262C476.753 736.217 477.441 736.076 477.985 735.993C478.508 735.92 479.007 735.759 479.315 735.7C479.643 735.616 479.823 735.546 479.823 735.546L460.237 718.709C460.237 718.709 460.197 718.907 460.154 719.239C460.14 719.554 460.042 720.086 460.056 720.614C460.044 721.178 460.015 721.875 460.059 722.564Z" fill="#405919"/>
<path d="M460.236 718.711L479.822 735.548C479.822 735.548 479.862 735.35 479.898 735.026C479.912 734.711 480.003 734.187 479.989 733.659C479.995 733.106 480.024 732.409 479.973 731.728C479.927 731.023 479.839 730.271 479.697 729.501C479.408 727.984 478.903 726.399 478.13 724.974C477.379 723.539 476.344 722.267 475.128 721.198C473.906 720.138 472.503 719.296 470.973 718.758C470.207 718.482 469.426 718.274 468.629 718.135C467.832 717.996 467.04 717.916 466.261 717.887C465.475 717.866 464.725 717.902 464.022 717.963C463.326 718.016 462.638 718.157 462.087 718.248C461.564 718.321 461.058 718.49 460.744 718.558C460.424 718.648 460.236 718.711 460.236 718.711Z" fill="#537322"/>
<path d="M555.977 665.469C556.016 666.182 556.111 666.926 556.247 667.704C556.388 668.459 556.59 669.238 556.844 670.005C557.098 670.771 557.424 671.516 557.814 672.232C558.572 673.658 559.621 674.93 560.849 675.967C562.085 677.011 563.501 677.836 565.031 678.374C566.569 678.919 568.206 679.177 569.75 679.236C570.536 679.257 571.287 679.236 571.982 679.168C572.672 679.123 573.36 678.982 573.904 678.899C574.427 678.826 574.926 678.665 575.234 678.606C575.562 678.522 575.742 678.452 575.742 678.452L556.156 661.615C556.156 661.615 556.115 661.813 556.073 662.145C556.059 662.46 555.961 662.992 555.975 663.52C555.962 664.082 555.932 664.779 555.977 665.469Z" fill="#405919"/>
<path d="M556.155 661.615L575.741 678.452C575.741 678.452 575.782 678.254 575.817 677.93C575.831 677.615 575.922 677.091 575.908 676.563C575.914 676.01 575.943 675.313 575.892 674.632C575.846 673.927 575.758 673.175 575.616 672.405C575.327 670.888 574.822 669.303 574.049 667.878C573.298 666.443 572.263 665.171 571.047 664.102C569.824 663.042 568.422 662.2 566.892 661.662C566.126 661.386 565.345 661.178 564.548 661.039C563.751 660.9 562.959 660.82 562.18 660.792C561.394 660.771 560.644 660.807 559.941 660.868C559.245 660.921 558.557 661.062 558.006 661.153C557.483 661.226 556.977 661.395 556.663 661.463C556.343 661.552 556.155 661.615 556.155 661.615Z" fill="#537322"/>
<path d="M103.476 637.738C103.515 638.451 103.61 639.195 103.746 639.973C103.887 640.728 104.089 641.507 104.343 642.273C104.597 643.04 104.923 643.784 105.313 644.5C106.071 645.926 107.12 647.198 108.348 648.235C109.584 649.279 111 650.104 112.53 650.642C114.068 651.187 115.705 651.445 117.249 651.504C118.035 651.525 118.786 651.504 119.481 651.436C120.171 651.391 120.859 651.25 121.403 651.167C121.926 651.094 122.425 650.933 122.733 650.874C123.061 650.79 123.241 650.72 123.241 650.72L103.655 633.883C103.655 633.883 103.615 634.081 103.572 634.413C103.558 634.728 103.46 635.26 103.474 635.788C103.46 636.351 103.431 637.049 103.476 637.738Z" fill="#405919"/>
<path d="M103.654 633.885L123.24 650.722C123.24 650.722 123.28 650.524 123.316 650.2C123.33 649.885 123.421 649.361 123.407 648.833C123.413 648.28 123.442 647.583 123.391 646.901C123.345 646.197 123.257 645.444 123.115 644.674C122.826 643.157 122.321 641.572 121.548 640.147C120.797 638.712 119.762 637.44 118.546 636.371C117.324 635.311 115.921 634.469 114.391 633.931C113.625 633.655 112.844 633.447 112.047 633.308C111.25 633.169 110.458 633.089 109.679 633.06C108.893 633.039 108.143 633.075 107.44 633.136C106.744 633.189 106.056 633.33 105.505 633.421C104.982 633.494 104.476 633.663 104.162 633.731C103.841 633.822 103.654 633.885 103.654 633.885Z" fill="#537322"/>
<path d="M0.0243058 537.684C0.0633058 538.397 0.158302 539.141 0.294302 539.919C0.435302 540.674 0.637303 541.453 0.891303 542.219C1.1453 542.986 1.4713 543.73 1.8613 544.446C2.6193 545.872 3.66831 547.144 4.89631 548.181C6.13231 549.225 7.54831 550.05 9.07831 550.588C10.6163 551.133 12.2533 551.391 13.7963 551.45C14.5823 551.471 15.3333 551.45 16.0283 551.382C16.7183 551.337 17.4063 551.196 17.9503 551.113C18.4733 551.04 18.9723 550.879 19.2803 550.82C19.6083 550.736 19.7873 550.666 19.7873 550.666L0.201308 533.83C0.201308 533.83 0.161308 534.028 0.118308 534.36C0.104308 534.675 0.006308 535.207 0.020308 535.735C0.008308 536.297 -0.0206942 536.994 0.0243058 537.684Z" fill="#405919"/>
<path d="M0.201172 533.83L19.7872 550.667C19.7872 550.667 19.8272 550.469 19.8632 550.145C19.8772 549.83 19.9682 549.306 19.9542 548.778C19.9602 548.225 19.9892 547.528 19.9382 546.847C19.8922 546.143 19.8042 545.39 19.6622 544.62C19.3732 543.103 18.8682 541.518 18.0952 540.093C17.3442 538.658 16.3092 537.386 15.0932 536.317C13.8702 535.257 12.4682 534.415 10.9382 533.877C10.1722 533.601 9.39117 533.393 8.59417 533.254C7.79717 533.115 7.00517 533.035 6.22617 533.006C5.44017 532.985 4.69017 533.021 3.98717 533.082C3.29117 533.135 2.60317 533.276 2.05217 533.367C1.52917 533.44 1.02317 533.609 0.709167 533.677C0.389167 533.767 0.201172 533.83 0.201172 533.83Z" fill="#537322"/>
<path d="M201.533 736.927C201.572 737.64 201.667 738.384 201.803 739.162C201.944 739.917 202.146 740.696 202.4 741.462C202.654 742.228 202.98 742.973 203.37 743.689C204.128 745.115 205.177 746.387 206.405 747.424C207.641 748.468 209.057 749.293 210.587 749.831C212.125 750.376 213.762 750.634 215.306 750.693C216.092 750.714 216.843 750.693 217.538 750.625C218.228 750.58 218.916 750.439 219.46 750.356C219.983 750.283 220.482 750.122 220.79 750.062C221.118 749.978 221.297 749.908 221.297 749.908L201.711 733.071C201.711 733.071 201.671 733.269 201.628 733.601C201.614 733.916 201.516 734.448 201.53 734.976C201.517 735.54 201.488 736.237 201.533 736.927Z" fill="#405919"/>
<path d="M201.71 733.073L221.296 749.91C221.296 749.91 221.337 749.712 221.372 749.388C221.386 749.073 221.477 748.549 221.463 748.021C221.469 747.468 221.498 746.771 221.447 746.089C221.401 745.385 221.313 744.632 221.171 743.862C220.882 742.345 220.377 740.76 219.604 739.335C218.853 737.9 217.818 736.628 216.603 735.559C215.38 734.499 213.978 733.657 212.448 733.119C211.682 732.843 210.901 732.635 210.104 732.496C209.307 732.357 208.515 732.277 207.737 732.249C206.951 732.228 206.201 732.264 205.498 732.325C204.802 732.378 204.114 732.519 203.563 732.61C203.04 732.683 202.534 732.852 202.22 732.92C201.898 733.01 201.71 733.073 201.71 733.073Z" fill="#537322"/>
<path d="M657.118 541.505C656.405 541.544 655.66 541.639 654.882 541.775C654.127 541.916 653.349 542.118 652.583 542.372C651.817 542.626 651.072 542.952 650.356 543.342C648.929 544.1 647.658 545.149 646.621 546.377C645.577 547.613 644.752 549.029 644.214 550.559C643.669 552.097 643.411 553.734 643.352 555.278C643.331 556.064 643.352 556.816 643.42 557.51C643.465 558.2 643.606 558.888 643.689 559.432C643.762 559.955 643.923 560.454 643.983 560.762C644.067 561.09 644.137 561.27 644.137 561.27L660.973 541.684C660.973 541.684 660.775 541.644 660.442 541.601C660.127 541.587 659.595 541.489 659.067 541.503C658.504 541.489 657.808 541.46 657.118 541.505Z" fill="#405919"/>
<path d="M660.972 541.683L644.135 561.269C644.135 561.269 644.333 561.309 644.657 561.345C644.972 561.359 645.496 561.45 646.024 561.436C646.577 561.442 647.274 561.471 647.955 561.42C648.66 561.374 649.412 561.286 650.182 561.144C651.699 560.855 653.284 560.35 654.709 559.577C656.144 558.826 657.416 557.791 658.485 556.575C659.545 555.352 660.387 553.95 660.925 552.42C661.201 551.654 661.409 550.873 661.548 550.076C661.687 549.279 661.767 548.487 661.796 547.709C661.817 546.923 661.781 546.173 661.72 545.47C661.667 544.773 661.526 544.086 661.435 543.535C661.362 543.012 661.193 542.506 661.125 542.192C661.035 541.871 660.972 541.683 660.972 541.683Z" fill="#537322"/>
<path d="M581.166 598.469C581.238 599.761 581.409 601.11 581.654 602.52C581.909 603.888 582.276 605.3 582.735 606.689C583.195 608.078 583.786 609.427 584.493 610.724C585.867 613.309 587.768 615.613 589.993 617.493C592.233 619.385 594.799 620.88 597.572 621.855C600.359 622.842 603.326 623.311 606.123 623.418C607.547 623.455 608.909 623.418 610.169 623.295C611.419 623.214 612.665 622.958 613.652 622.808C614.599 622.675 615.504 622.384 616.062 622.276C616.656 622.124 616.982 621.997 616.982 621.997L581.488 591.486C581.488 591.486 581.415 591.845 581.338 592.447C581.312 593.018 581.135 593.982 581.161 594.939C581.138 595.956 581.085 597.219 581.166 598.469Z" fill="#405919"/>
<path d="M581.488 591.486L616.981 621.997C616.981 621.997 617.054 621.638 617.119 621.05C617.145 620.479 617.309 619.53 617.284 618.572C617.295 617.57 617.348 616.307 617.255 615.072C617.171 613.795 617.012 612.431 616.755 611.036C616.231 608.287 615.316 605.414 613.915 602.832C612.553 600.232 610.679 597.926 608.476 595.99C606.261 594.068 603.718 592.544 600.946 591.569C599.558 591.068 598.142 590.692 596.698 590.44C595.253 590.188 593.819 590.044 592.408 589.991C590.984 589.953 589.625 590.018 588.35 590.128C587.088 590.224 585.842 590.48 584.843 590.645C583.896 590.778 582.978 591.083 582.409 591.206C581.829 591.372 581.488 591.486 581.488 591.486Z" fill="#537322"/>
<path d="M87.2662 597.943C87.1952 596.651 87.0232 595.302 86.7782 593.892C86.5232 592.524 86.1562 591.112 85.6972 589.723C85.2372 588.334 84.6462 586.985 83.9392 585.688C82.5652 583.103 80.6642 580.799 78.4392 578.919C76.1992 577.027 73.6332 575.531 70.8602 574.557C68.0732 573.57 65.1062 573.101 62.3092 572.994C60.8852 572.956 59.5232 572.994 58.2632 573.117C57.0132 573.198 55.7672 573.454 54.7802 573.604C53.8332 573.737 52.9282 574.027 52.3702 574.136C51.7762 574.288 51.4502 574.415 51.4502 574.415L86.9432 604.926C86.9432 604.926 87.0162 604.567 87.0932 603.965C87.1192 603.394 87.2952 602.43 87.2702 601.473C87.2942 600.456 87.3472 599.193 87.2662 597.943Z" fill="#405919"/>
<path d="M86.944 604.926L51.451 574.415C51.451 574.415 51.378 574.774 51.313 575.362C51.287 575.932 51.123 576.882 51.148 577.84C51.137 578.842 51.084 580.105 51.177 581.34C51.26 582.617 51.42 583.981 51.678 585.376C52.202 588.125 53.117 590.998 54.518 593.58C55.88 596.18 57.754 598.486 59.957 600.422C62.172 602.344 64.715 603.868 67.487 604.843C68.875 605.344 70.291 605.72 71.735 605.972C73.18 606.224 74.614 606.369 76.025 606.421C77.449 606.458 78.809 606.394 80.083 606.284C81.345 606.188 82.591 605.932 83.59 605.767C84.537 605.634 85.454 605.329 86.024 605.206C86.604 605.04 86.944 604.926 86.944 604.926Z" fill="#537322"/>
<path d="M537.238 157.508C535.399 166.502 528.654 173.86 519.865 176.517L395.598 213.102C407.657 219.029 418.898 227.205 428.913 237.22C471.221 279.528 477.966 343.91 448.943 393.168L484.302 512.735C486.959 521.523 494.113 528.268 503.31 530.108L583.226 546.05C697.887 417.285 693.391 219.847 569.941 96.3965C564.422 90.878 558.699 85.5639 552.772 80.4542L537.238 157.508Z" fill="#405919"/>
<path d="M190.801 144.428L228.613 260.316C233.723 252.14 239.855 244.169 247.008 237.015C287.273 196.751 347.363 188.78 395.598 212.898L519.866 176.312C528.655 173.655 535.4 166.502 537.239 157.304L552.568 80.0454C423.804 -31.7548 228.409 -26.4407 105.981 95.9877C100.258 101.711 94.5348 107.842 89.2207 113.974L173.429 125.42C182.217 128.077 188.962 135.23 190.801 144.428Z" fill="#537322"/>
<path d="M484.303 512.53L448.943 393.167C443.425 402.365 436.885 411.154 428.913 419.125C391.306 456.732 336.121 466.134 289.725 447.535L147.471 474.31C138.478 476.149 131.12 482.894 128.463 491.682L108.024 561.992C236.176 688.099 442.403 687.486 569.737 560.152C574.438 555.452 578.73 550.751 583.022 546.05L503.106 530.107C494.318 528.064 486.96 521.523 484.303 512.53Z" fill="#537322"/>
<path d="M147.471 474.31L289.725 447.535C274.192 441.199 259.68 431.797 247.008 419.125C203.882 375.999 197.751 310.186 228.613 260.52L190.801 144.428C188.962 135.435 182.217 128.077 173.428 125.42L89.425 114.178C-21.762 242.943 -16.2435 437.724 106.185 559.948C106.798 560.561 107.411 561.175 108.229 561.788L128.668 491.478C131.12 482.69 138.478 475.945 147.471 474.31Z" fill="#405919"/>
<path d="M39.704 334H36.752L37.232 316.504H46.808V318.616H39.584L39.368 323.656H46.184V326.104H39.488L39.704 334ZM61.0983 334H50.3223L50.5623 316.504H52.9383L52.8183 330.376H61.3383L61.0983 334ZM72.9656 316.192C77.8856 316.192 81.0536 319.744 81.0536 325.264C81.0536 330.784 77.8856 334.336 72.9656 334.336C68.0456 334.336 64.8536 330.808 64.8536 325.264C64.8536 319.744 68.0456 316.192 72.9656 316.192ZM72.9656 318.112C69.5336 318.112 67.3496 320.848 67.3496 325.264C67.3496 328.888 69.5336 329.848 72.9656 329.848C76.3976 329.848 78.5576 328.888 78.5576 325.264C78.5576 320.848 76.3976 318.112 72.9656 318.112ZM92.8685 325.792C93.8765 326.128 94.8125 327.256 95.7965 329.224L98.1965 334H94.8365L93.0605 329.512C91.9085 327.16 91.0445 326.608 89.1725 326.608H87.3965V334H84.5645V316.504H89.9165C93.4445 316.504 95.5085 318.16 95.5085 321.544C95.5085 323.752 94.5005 325.24 92.8685 325.792ZM87.1805 317.752V324.184H90.1565C91.9565 324.184 93.8285 322.96 93.8285 321.544C93.8285 318.544 91.9565 317.752 90.1565 317.752H87.1805ZM112.977 334H101.697V316.504H112.761V318.496H104.073V323.68H112.401V325.672H104.073V330.376H112.977V334ZM127.742 319.384C125.966 318.52 124.382 318.112 122.894 318.112C120.326 318.112 118.862 319.144 118.862 320.992C118.862 322.528 119.63 323.224 122.222 323.704L123.638 323.992C127.166 324.664 128.798 326.32 128.798 329.176C128.798 332.56 126.494 334.336 122.102 334.336C120.446 334.336 118.574 333.976 116.558 333.232V329.488C118.478 330.568 120.326 331.12 122.102 331.12C124.814 331.12 126.326 329.8 126.326 328.768C126.326 327.832 125.342 326.728 122.942 326.248L121.502 325.96C117.974 325.264 116.486 323.848 116.486 321.184C116.486 318.088 118.79 316.192 122.63 316.192C124.262 316.192 125.966 316.48 127.742 317.08V319.384ZM146.442 320.344C144.858 318.856 143.058 318.136 141.018 318.136C137.034 318.136 134.826 320.632 134.826 325.264C134.898 329.368 137.034 330.76 141.018 330.76C143.058 330.76 144.858 330.016 146.442 328.528V332.656C144.786 333.784 142.938 334.336 140.874 334.336C135.57 334.336 132.33 330.88 132.33 325.264C132.33 319.648 135.57 316.192 140.874 316.192C142.986 316.192 144.81 316.744 146.442 317.848V320.344ZM161.235 334H149.955V316.504H161.019V318.496H152.331V323.68H160.659V325.672H152.331V330.376H161.235V334ZM173.048 325.792C174.056 326.128 174.992 327.256 175.976 329.224L178.376 334H175.016L173.24 329.512C172.088 327.16 171.224 326.608 169.352 326.608H167.576V334H164.744V316.504H170.096C173.624 316.504 175.688 318.16 175.688 321.544C175.688 323.752 174.68 325.24 173.048 325.792ZM167.36 317.752V324.184H170.336C172.136 324.184 174.008 322.96 174.008 321.544C174.008 318.544 172.136 317.752 170.336 317.752H167.36Z" fill="#F8F8F8"/>
<path d="M290.056 546.792C291.064 547.128 292 548.256 292.984 550.224L295.384 555H292.024L290.248 550.512C289.096 548.16 288.232 547.608 286.36 547.608H284.584V555H281.752V537.504H287.104C290.632 537.504 292.696 539.16 292.696 542.544C292.696 544.752 291.688 546.24 290.056 546.792ZM284.368 538.752V545.184H287.344C289.144 545.184 291.016 543.96 291.016 542.544C291.016 539.544 289.144 538.752 287.344 538.752H284.368ZM310.165 555H298.885V537.504H309.949V539.496H301.261V544.68H309.589V546.672H301.261V551.376H310.165V555ZM316.626 555H313.674L314.154 537.504H323.73V539.616H316.506L316.29 544.656H323.106V547.104H316.41L316.626 555ZM338.02 555H327.244L327.484 537.504H329.86L329.74 551.376H338.26L338.02 555ZM353.055 555H341.775V537.504H352.839V539.496H344.151V544.68H352.479V546.672H344.151V551.376H353.055V555ZM362.781 539.256L356.565 539.496V537.504H371.373V539.496L365.157 539.256L365.637 555H362.325L362.781 539.256ZM374.869 555C375.229 549.168 375.229 543.336 375.349 537.504H377.365C377.437 543.336 377.389 549.168 377.701 555H374.869ZM389.525 546.792C390.533 547.128 391.469 548.256 392.453 550.224L394.853 555H391.493L389.717 550.512C388.565 548.16 387.701 547.608 385.829 547.608H384.053V555H381.221V537.504H386.573C390.101 537.504 392.165 539.16 392.165 542.544C392.165 544.752 391.157 546.24 389.525 546.792ZM383.837 538.752V545.184H386.813C388.613 545.184 390.485 543.96 390.485 542.544C390.485 539.544 388.613 538.752 386.813 538.752H383.837Z" fill="#F8F8F8"/>
<path d="M519.864 320.344C518.28 318.856 516.48 318.136 514.44 318.136C510.456 318.136 508.248 320.632 508.248 325.264C508.32 329.368 510.456 330.76 514.44 330.76C516.48 330.76 518.28 330.016 519.864 328.528V332.656C518.208 333.784 516.36 334.336 514.296 334.336C508.992 334.336 505.752 330.88 505.752 325.264C505.752 319.648 508.992 316.192 514.296 316.192C516.408 316.192 518.232 316.744 519.864 317.848V320.344ZM523.377 316.504H525.873L525.633 325.504C525.561 329.248 527.049 330.784 530.097 330.784C533.121 330.784 534.609 329.248 534.513 325.504L534.273 316.504H536.769V327.424C536.769 331.984 534.489 334.336 530.097 334.336C525.657 334.336 523.377 331.984 523.377 327.424V316.504ZM551.075 334H540.299L540.539 316.504H542.915L542.795 330.376H551.315L551.075 334ZM558.702 318.256L552.486 318.496V316.504H567.294V318.496L561.078 318.256L561.558 334H558.246L558.702 318.256ZM570.791 334C571.151 328.168 571.151 322.336 571.271 316.504H573.287C573.359 322.336 573.311 328.168 573.623 334H570.791ZM593.175 316.504L587.103 334H583.239L577.143 316.504H579.615L585.159 329.584L590.727 316.504H593.175ZM597.163 334H593.947L600.859 316.504H603.091L609.979 334H606.595L605.923 331.144H598.051L597.163 334ZM598.747 328.36H605.203L601.963 318.664L598.747 328.36ZM621.798 325.792C622.806 326.128 623.742 327.256 624.726 329.224L627.126 334H623.766L621.99 329.512C620.838 327.16 619.974 326.608 618.102 326.608H616.326V334H613.494V316.504H618.846C622.374 316.504 624.438 318.16 624.438 321.544C624.438 323.752 623.43 325.24 621.798 325.792ZM616.11 317.752V324.184H619.086C620.886 324.184 622.758 322.96 622.758 321.544C622.758 318.544 620.886 317.752 619.086 317.752H616.11Z" fill="#F8F8F8"/>
<path d="M302.008 114.384C300.232 113.52 298.648 113.112 297.16 113.112C294.592 113.112 293.128 114.144 293.128 115.992C293.128 117.528 293.896 118.224 296.488 118.704L297.904 118.992C301.432 119.664 303.064 121.32 303.064 124.176C303.064 127.56 300.76 129.336 296.368 129.336C294.712 129.336 292.84 128.976 290.824 128.232V124.488C292.744 125.568 294.592 126.12 296.368 126.12C299.08 126.12 300.592 124.8 300.592 123.768C300.592 122.832 299.608 121.728 297.208 121.248L295.768 120.96C292.24 120.264 290.752 118.848 290.752 116.184C290.752 113.088 293.056 111.192 296.896 111.192C298.528 111.192 300.232 111.48 302.008 112.08V114.384ZM317.876 129H306.596V111.504H317.66V113.496H308.972V118.68H317.3V120.672H308.972V125.376H317.876V129ZM324.385 129H321.385L321.745 111.504H325.273L329.617 121.896L334.225 111.504H337.513L337.873 129H334.849L335.329 113.64L331.057 126.216H328.201L323.929 113.64L324.385 129ZM352.657 129H341.377V111.504H352.441V113.496H343.753V118.68H352.081V120.672H343.753V125.376H352.657V129ZM359.382 129H356.166L363.078 111.504H365.31L372.198 129H368.814L368.142 126.144H360.27L359.382 129ZM360.966 123.36H367.422L364.182 113.664L360.966 123.36ZM384.017 120.792C385.025 121.128 385.961 122.256 386.945 124.224L389.345 129H385.985L384.209 124.512C383.057 122.16 382.193 121.608 380.321 121.608H378.545V129H375.713V111.504H381.065C384.593 111.504 386.657 113.16 386.657 116.544C386.657 118.752 385.649 120.24 384.017 120.792ZM378.329 112.752V119.184H381.305C383.105 119.184 384.977 117.96 384.977 116.544C384.977 113.544 383.105 112.752 381.305 112.752H378.329Z" fill="#F8F8F8"/>
</svg>
