<svg width="471" height="334" fill="none" xmlns="http://www.w3.org/2000/svg"><path d="M270.942 136.471c0 74.266-60.205 134.471-134.471 134.471S2 210.737 2 136.471 62.205 2 136.471 2s134.471 60.205 134.471 134.471z" stroke="#A6727C" stroke-width="4"/><circle cx="334.489" cy="136.471" r="134.471" stroke="#A6727C" stroke-width="4"/><rect x="2" y="284" width="467" height="47" rx="23.5" stroke="#A6727C" stroke-width="4"/><path d="M39.128 131.06c-1.02-.56-2.04-.84-3.08-.84-2.34 0-3.58 1.66-3.58 4.32.18 1.88 1.16 2.52 3.5 2.64 1.04 0 2.1.14 3.12-.42l.04 2.82c-1 .46-2.06.7-3.28.7-3.28 0-5.38-2.22-5.38-5.74 0-3.56 2.1-5.74 5.5-5.74 1.1 0 2.18.22 3.16.68v1.58zm7.259-2.26c3.12 0 5.02 2.14 5.02 5.74 0 3.58-1.9 5.74-5.02 5.74-3.14 0-5.02-2.16-5.02-5.74 0-3.6 1.88-5.74 5.02-5.74zm0 1.32c-1.92 0-3.12 1.56-3.12 4.1 0 2.56 1.18 2.96 3.12 2.96 1.92 0 3.12-.42 3.12-2.96 0-2.5-1.2-4.1-3.12-4.1zM64.176 140h-2.56l.38-6.64c0-2.08-.62-3.1-2.22-3.1-2.2 0-3.24 1.32-3.24 3.46l.3 6.28h-2.5l.3-11.04h1.8v1.32c.86-.68 2.02-1.48 3.54-1.48 2.5 0 3.78 1.58 3.92 4.6l.28 6.6zm12.973-5.92h-8.16c.04 2.92 1.48 3.42 3.86 3.54 1.38 0 2.68.02 3.96-.66l.04 2.48c-1.3.56-2.66.84-4.06.84-3.48-.12-5.68-2.18-5.68-5.64.14-3.58 2.08-5.84 5.38-5.84 2.92.12 4.42 1.48 4.66 4.6v.68zm-1.56-1.58c-.2-1.22-1.32-2.76-3.1-2.76-2 0-3.3 1.46-3.3 2.78l6.4-.02zm8.992 1.04 3.3-4.48h1.82l-3.86 5.82 4.26 5.12h-2.9l-2.5-3.8-2.7 3.8h-2.9l4.36-5.24-3.8-5.7h1.92l3 4.48zm12.766-10.4c-.3-.26-.5-.38-.68-.38-.24 0-.42.12-.54.36-.12.24-.18.62-.2 1.16h-1.22c.04-1.76.72-2.76 1.9-2.76.5 0 .88.16 1.36.6l.56.54c.28.26.5.38.66.38.26 0 .44-.12.56-.36.12-.24.18-.62.18-1.16h1.24c-.04 1.76-.74 2.76-1.92 2.76-.5 0-.88-.16-1.36-.6l-.54-.54zm3.66 5.92h1.54l-.04 10.94h-1.5v-1.64c-.76 1.3-1.9 1.92-3.5 1.92-2.64 0-4.48-2.3-4.48-5.74 0-3.44 1.84-5.74 4.48-5.74 1.6 0 2.74.62 3.5 1.92v-1.66zm-6.68 5.28c.3 1.92 1.1 2.68 3 2.68s2.5-.4 2.74-2.82c.06-2.64-.78-4.1-2.7-4.1-1.9 0-3.04 1.6-3.04 4.24zm15.888-5.54c3.12 0 5.02 2.14 5.02 5.74 0 3.58-1.9 5.74-5.02 5.74-3.14 0-5.02-2.16-5.02-5.74 0-3.6 1.88-5.74 5.02-5.74zm0 1.32c-1.92 0-3.12 1.56-3.12 4.1 0 2.56 1.18 2.96 3.12 2.96 1.92 0 3.12-.42 3.12-2.96 0-2.5-1.2-4.1-3.12-4.1zM320.343 131.06c-1.02-.56-2.04-.84-3.08-.84-2.34 0-3.58 1.66-3.58 4.32.18 1.88 1.16 2.52 3.5 2.64 1.04 0 2.1.14 3.12-.42l.04 2.82c-1 .46-2.06.7-3.28.7-3.28 0-5.38-2.22-5.38-5.74 0-3.56 2.1-5.74 5.5-5.74 1.1 0 2.18.22 3.16.68v1.58zm9.562-.12c-.4-.24-.78-.24-1.36-.24-2.02 0-2.86 1.48-2.86 3.84l.4 5.46h-2.82c.82-4.52.92-6.16.76-10.84h1.66v1.12c.36-.28 1.66-1.28 3.4-1.28.24 0 .44.02.8.1l.02 1.84zm11.584 3.14h-8.16c.04 2.92 1.48 3.42 3.86 3.54 1.38 0 2.68.02 3.96-.66l.04 2.48c-1.3.56-2.66.84-4.06.84-3.48-.12-5.68-2.18-5.68-5.64.14-3.58 2.08-5.84 5.38-5.84 2.92.12 4.42 1.48 4.66 4.6v.68zm-1.56-1.58c-.2-1.22-1.32-2.76-3.1-2.76-2 0-3.3 1.46-3.3 2.78l6.4-.02zm12.269-1.62a7.4 7.4 0 0 0-3.28-.78c-1.8 0-2.78.66-2.78 1.74 0 .98.58 1.44 2.5 1.86l.62.14c2.54.54 3.52 1.36 3.52 3.14 0 2.04-1.7 3.3-4.52 3.3-1.16 0-2.42-.22-3.84-.68v-2.64c1.34.7 2.62 1.04 3.88 1.04 1.7 0 2.44-.52 2.44-1.46-.22-.4-.4-.68-.56-.86-.14-.18-.78-.38-1.9-.64l-.62-.14c-2.22-.46-3.16-1.18-3.16-2.88 0-2.06 1.52-3.22 4.2-3.22 1.34 0 2.52.2 3.5.58v1.5zm12.169.18c-1.02-.56-2.04-.84-3.08-.84-2.34 0-3.58 1.66-3.58 4.32.18 1.88 1.16 2.52 3.5 2.64 1.04 0 2.1.14 3.12-.42l.04 2.82c-1 .46-2.06.7-3.28.7-3.28 0-5.38-2.22-5.38-5.74 0-3.56 2.1-5.74 5.5-5.74 1.1 0 2.18.22 3.16.68v1.58zm4.922-3.98h-1.8l.1-2.28h1.6l.1 2.28zm-2 12.92c.26-3.84.32-7.5.3-10.94h1.6c-.12 3.28-.02 6.96.4 10.94h-2.3zm14.295-8.84c.9-1.6 1.94-2.36 3.62-2.36 2.28 0 3.56 1.66 3.56 4.6l.2 6.6h-2.68l.68-6.84c0-2.1-.44-3.1-1.96-3.1-1.88 0-2.82 1.62-2.92 3.76l-.3 6.18h-2.48l.88-6.94c0-2.1-.74-3.08-2.28-3.08-1.84 0-3.1 1.72-3.1 3.84l.2 6.18h-2.5l.5-10.94h1.8l-.2 1.7c.82-1.34 1.94-1.96 3.52-1.96 1.6 0 2.92.82 3.46 2.36zm20.335 2.92h-8.16c.04 2.92 1.48 3.42 3.86 3.54 1.38 0 2.68.02 3.96-.66l.04 2.48c-1.3.56-2.66.84-4.06.84-3.48-.12-5.68-2.18-5.68-5.64.14-3.58 2.08-5.84 5.38-5.84 2.92.12 4.42 1.48 4.66 4.6v.68zm-1.56-1.58c-.2-1.22-1.32-2.76-3.1-2.76-2 0-3.3 1.46-3.3 2.78l6.4-.02zm13.586 7.5h-2.56l.38-6.64c0-2.08-.62-3.1-2.22-3.1-2.2 0-3.24 1.32-3.24 3.46l.3 6.28h-2.5l.3-11.04h1.8v1.32c.86-.68 2.02-1.48 3.54-1.48 2.5 0 3.78 1.58 3.92 4.6l.28 6.6zm3.668-10.94.1-2.72h1.9l-.1 2.72h2.54v1.4h-2.54l-.1 4.76c0 1.8.38 2.1 1.86 2.1h1.86V140h-1.86c-2.76 0-3.76-.86-3.76-3.6l.1-5.94h-1.32v-1.4h1.32zm13.465-.26c3.12 0 5.02 2.14 5.02 5.74 0 3.58-1.9 5.74-5.02 5.74-3.14 0-5.02-2.16-5.02-5.74 0-3.6 1.88-5.74 5.02-5.74zm0 1.32c-1.92 0-3.12 1.56-3.12 4.1 0 2.56 1.18 2.96 3.12 2.96 1.92 0 3.12-.42 3.12-2.96 0-2.5-1.2-4.1-3.12-4.1zM155.693 300.888h1.8l-.2 15.2h-1.8v-1.64c-.74 1.3-1.9 1.92-3.5 1.92-2.64 0-4.48-2.3-4.48-5.74 0-3.44 1.84-5.74 4.48-5.74 1.6 0 2.76.62 3.5 1.92l.2-5.92zm-6.88 9.54c.3 1.9 1.1 2.68 3 2.68s2.82-.4 2.88-2.82c-.06-2.64-.92-4.1-2.82-4.1-1.92 0-3.06 1.6-3.06 4.24zm21.631-.26h-8.16c.04 2.92 1.48 3.42 3.86 3.54 1.38 0 2.68.02 3.96-.66l.04 2.48c-1.3.56-2.66.84-4.06.84-3.48-.12-5.68-2.18-5.68-5.64.14-3.58 2.08-5.84 5.38-5.84 2.92.12 4.42 1.48 4.66 4.6v.68zm-1.56-1.58c-.2-1.22-1.32-2.76-3.1-2.76-2 0-3.3 1.46-3.3 2.78l6.4-.02zm12.268-1.62a7.4 7.4 0 0 0-3.28-.78c-1.8 0-2.78.66-2.78 1.74 0 .98.58 1.44 2.5 1.86l.62.14c2.54.54 3.52 1.36 3.52 3.14 0 2.04-1.7 3.3-4.52 3.3-1.16 0-2.42-.22-3.84-.68v-2.64c1.34.7 2.62 1.04 3.88 1.04 1.7 0 2.44-.52 2.44-1.46-.22-.4-.4-.68-.56-.86-.14-.18-.78-.38-1.9-.64l-.62-.14c-2.22-.46-3.16-1.18-3.16-2.88 0-2.06 1.52-3.22 4.2-3.22 1.34 0 2.52.2 3.5.58v1.5zm13.549 3.2h-8.16c.04 2.92 1.48 3.42 3.86 3.54 1.38 0 2.68.02 3.96-.66l.04 2.48c-1.3.56-2.66.84-4.06.84-3.48-.12-5.68-2.18-5.68-5.64.14-3.58 2.08-5.84 5.38-5.84 2.92.12 4.42 1.48 4.66 4.6v.68zm-1.56-1.58c-.2-1.22-1.32-2.76-3.1-2.76-2 0-3.3 1.46-3.3 2.78l6.4-.02zm13.587 7.5h-2.56l.38-6.64c0-2.08-.62-3.1-2.22-3.1-2.2 0-3.24 1.32-3.24 3.46l.3 6.28h-2.5l.3-11.04h1.8v1.32c.86-.68 2.02-1.48 3.54-1.48 2.5 0 3.78 1.58 3.92 4.6l.28 6.6zm8.597 0h-2.64l-4-10.94h1.9l3.42 8.02 3.42-8.02h1.9l-4 10.94zm10.977-11.2c3.12 0 5.02 2.14 5.02 5.74 0 3.58-1.9 5.74-5.02 5.74-3.14 0-5.02-2.16-5.02-5.74 0-3.6 1.88-5.74 5.02-5.74zm0 1.32c-1.92 0-3.12 1.56-3.12 4.1 0 2.56 1.18 2.96 3.12 2.96 1.92 0 3.12-.42 3.12-2.96 0-2.5-1.2-4.1-3.12-4.1zm11.869 9.88h-3.92c.08-5.06.22-9.24.5-14.32h1.7c-.24 4.32-.36 7.76-.4 12.1h2.12v2.22zm9.556 0h-2.64l-4-10.94h1.9l3.42 8.02 3.42-8.02h1.9l-4 10.94zm8.934-12.92h-1.8l.1-2.28h1.6l.1 2.28zm-2 12.92c.26-3.84.32-7.5.3-10.94h1.6c-.12 3.28-.02 6.96.4 10.94h-2.3zm14.295-8.84c.9-1.6 1.94-2.36 3.62-2.36 2.28 0 3.56 1.66 3.56 4.6l.2 6.6h-2.68l.68-6.84c0-2.1-.44-3.1-1.96-3.1-1.88 0-2.82 1.62-2.92 3.76l-.3 6.18h-2.48l.88-6.94c0-2.1-.74-3.08-2.28-3.08-1.84 0-3.1 1.72-3.1 3.84l.2 6.18h-2.5l.5-10.94h1.8l-.2 1.7c.82-1.34 1.94-1.96 3.52-1.96 1.6 0 2.92.82 3.46 2.36zm20.335 2.92h-8.16c.04 2.92 1.48 3.42 3.86 3.54 1.38 0 2.68.02 3.96-.66l.04 2.48c-1.3.56-2.66.84-4.06.84-3.48-.12-5.68-2.18-5.68-5.64.14-3.58 2.08-5.84 5.38-5.84 2.92.12 4.42 1.48 4.66 4.6v.68zm-1.56-1.58c-.2-1.22-1.32-2.76-3.1-2.76-2 0-3.3 1.46-3.3 2.78l6.4-.02zm13.587 7.5h-2.56l.38-6.64c0-2.08-.62-3.1-2.22-3.1-2.2 0-3.24 1.32-3.24 3.46l.3 6.28h-2.5l.3-11.04h1.8v1.32c.86-.68 2.02-1.48 3.54-1.48 2.5 0 3.78 1.58 3.92 4.6l.28 6.6zm3.667-10.94.1-2.72h1.9l-.1 2.72h2.54v1.4h-2.54l-.1 4.76c0 1.8.38 2.1 1.86 2.1h1.86v2.68h-1.86c-2.76 0-3.76-.86-3.76-3.6l.1-5.94h-1.32v-1.4h1.32zm13.466-.26c3.12 0 5.02 2.14 5.02 5.74 0 3.58-1.9 5.74-5.02 5.74-3.14 0-5.02-2.16-5.02-5.74 0-3.6 1.88-5.74 5.02-5.74zm0 1.32c-1.92 0-3.12 1.56-3.12 4.1 0 2.56 1.18 2.96 3.12 2.96 1.92 0 3.12-.42 3.12-2.96 0-2.5-1.2-4.1-3.12-4.1z" fill="#734C56"/></svg>