<svg width="168" height="172" fill="none" xmlns="http://www.w3.org/2000/svg"><circle cx="55.444" cy="150.579" r="20.421" stroke="#A6727C" stroke-width="2"/><circle cx="21.421" cy="105.216" r="20.421" stroke="#A6727C" stroke-width="2"/><circle cx="34.022" cy="47.253" r="20.421" stroke="#A6727C" stroke-width="2"/><circle cx="84.425" cy="21.421" r="20.421" stroke="#A6727C" stroke-width="2"/><circle cx="134.827" cy="47.253" r="20.421" stroke="#A6727C" stroke-width="2"/><circle cx="146.168" cy="105.216" r="20.421" stroke="#A6727C" stroke-width="2"/><circle cx="111.517" cy="150.579" r="20.421" stroke="#A6727C" stroke-width="2"/><path d="M108.017 87.212h-2.779c-1.116-10.323-10-18.538-20.587-18.538-6.166 0-11.763 2.8-15.577 7.2-.771.874-.65 1.947.141 2.515.812.568 1.764.386 2.435-.364a17.21 17.21 0 0 1 13.001-5.903 17.168 17.168 0 0 1 17.099 15.09h-3.023c-1.44 0-1.825.974-1.035 2.09l4.524 6.47c.649.933 1.623.954 2.292 0l4.543-6.45c.812-1.136.426-2.11-1.034-2.11zm-46.711 4.32h2.778c1.116 10.324 10 18.519 20.566 18.519 6.207 0 11.805-2.82 15.619-7.2.73-.873.628-1.968-.142-2.536-.811-.567-1.764-.365-2.434.386-3.123 3.63-7.789 5.902-13.042 5.902a17.146 17.146 0 0 1-17.078-15.07h3.022c1.44 0 1.826-.994 1.035-2.088l-4.544-6.472c-.648-.932-1.602-.953-2.272 0l-4.543 6.45c-.811 1.117-.426 2.11 1.035 2.11z" fill="#734C56"/></svg>